<?xml version="1.0" encoding="UTF-8"?>
<svg width="1200" height="630" viewBox="0 0 1200 630" fill="none" xmlns="http://www.w3.org/2000/svg">
    <!-- Background -->
    <rect width="1200" height="630" fill="#1F2937"/>
    <rect width="1200" height="630" fill="#6D28D9" opacity="0.1"/>
    
    <!-- Logo -->
    <g transform="translate(96, 59) scale(0.8)">
        <!-- Background -->
        <rect width="512" height="512" rx="128" fill="#6D28D9"/>
        
        <!-- Document Stack -->
        <g transform="translate(96, 96)">
            <rect x="32" y="32" width="256" height="320" rx="16" fill="#F3F4F6" opacity="0.6"/>
            <rect x="48" y="16" width="256" height="320" rx="16" fill="#F3F4F6" opacity="0.8"/>
            <rect x="64" y="0" width="256" height="320" rx="16" fill="#F3F4F6"/>
            <rect x="96" y="64" width="192" height="12" rx="6" fill="#6D28D9" opacity="0.8"/>
            <rect x="96" y="96" width="160" height="12" rx="6" fill="#6D28D9" opacity="0.6"/>
            <rect x="96" y="128" width="176" height="12" rx="6" fill="#6D28D9" opacity="0.7"/>
            <circle cx="288" cy="240" r="32" fill="#6D28D9"/>
            <path d="M276 240l8 8l20-20" stroke="#F3F4F6" stroke-width="6" stroke-linecap="round" stroke-linejoin="round"/>
        </g>
    </g>
    
    <!-- Text -->
    <text x="520" y="200" font-family="Inter, system-ui" font-size="72" font-weight="700" fill="#F3F4F6">
        SummarizeHub
    </text>
    <text x="520" y="280" font-family="Inter, system-ui" font-size="36" font-weight="500" fill="#D1D5DB">
        Privacy-focused article summarization
    </text>
    <text x="520" y="340" font-family="Inter, system-ui" font-size="32" font-weight="400" fill="#9CA3AF">
        using Gemma 2B-IT in your browser
    </text>
    
    <!-- Features -->
    <g transform="translate(520, 400)">
        <circle cx="12" cy="12" r="6" fill="#6D28D9"/>
        <text x="32" y="20" font-family="Inter, system-ui" font-size="24" fill="#D1D5DB">No server required</text>
        
        <circle cx="12" cy="52" r="6" fill="#6D28D9"/>
        <text x="32" y="60" font-family="Inter, system-ui" font-size="24" fill="#D1D5DB">Bulk CSV/XLSX processing</text>
        
        <circle cx="12" cy="92" r="6" fill="#6D28D9"/>
        <text x="32" y="100" font-family="Inter, system-ui" font-size="24" fill="#D1D5DB">100% private - runs in your browser</text>
    </g>
</svg> 