<?xml version="1.0" encoding="UTF-8"?>
<svg width="1200" height="630" viewBox="0 0 1200 630" fill="none" xmlns="http://www.w3.org/2000/svg">
    <!-- Background -->
    <rect width="1200" height="630" fill="#1e40af"/>
    <rect width="1200" height="630" fill="url(#gradient)"/>
    
    <!-- Gradient Definition -->
    <defs>
        <linearGradient id="gradient" x1="0" y1="0" x2="1200" y2="630" gradientUnits="userSpaceOnUse">
            <stop offset="0%" stop-color="#1e40af"/>
            <stop offset="100%" stop-color="#1e3a8a"/>
        </linearGradient>
    </defs>
    
    <!-- Content Container -->
    <g transform="translate(100, 100)">
        <!-- Logo/Icon -->
        <g transform="translate(0, 50)">
            <rect width="96" height="96" rx="24" fill="#dbeafe"/>
            <g transform="translate(24, 24)">
                <rect x="0" y="0" width="48" height="48" rx="8" fill="#1e40af"/>
                <rect x="12" y="12" width="24" height="4" rx="2" fill="#dbeafe"/>
                <rect x="12" y="20" width="24" height="4" rx="2" fill="#dbeafe" opacity="0.8"/>
                <rect x="12" y="28" width="24" height="4" rx="2" fill="#dbeafe" opacity="0.6"/>
            </g>
        </g>
        
        <!-- Text Content -->
        <g transform="translate(120, 50)">
            <text x="0" y="48" font-family="system-ui" font-size="48" font-weight="bold" fill="#ffffff">
                SummarizeHub
            </text>
            <text x="0" y="88" font-family="system-ui" font-size="24" fill="#bfdbfe">
                Secure, efficient article summarization
            </text>
        </g>
        
        <!-- Feature Highlights -->
        <g transform="translate(0, 200)">
            <!-- Privacy Icon -->
            <g transform="translate(0, 0)">
                <rect width="64" height="64" rx="32" fill="#bfdbfe" opacity="0.1"/>
                <g transform="translate(16, 16)">
                    <path d="M16 8a8 8 0 0116 0v8h4a2 2 0 012 2v12a2 2 0 01-2 2H4a2 2 0 01-2-2V18a2 2 0 012-2h4V8z" 
                          fill="#dbeafe"/>
                </g>
            </g>
            <text x="80" y="40" font-family="system-ui" font-size="20" fill="#dbeafe">
                Browser-based processing for complete privacy
            </text>
            
            <!-- Speed Icon -->
            <g transform="translate(0, 80)">
                <rect width="64" height="64" rx="32" fill="#bfdbfe" opacity="0.1"/>
                <g transform="translate(16, 16)">
                    <path d="M13 10V3L4 14h7v7l9-11h-7z" fill="#dbeafe"/>
                </g>
            </g>
            <text x="80" y="120" font-family="system-ui" font-size="20" fill="#dbeafe">
                Process multiple articles efficiently
            </text>
            
            <!-- AI Icon -->
            <g transform="translate(0, 160)">
                <rect width="64" height="64" rx="32" fill="#bfdbfe" opacity="0.1"/>
                <g transform="translate(16, 16)">
                    <path d="M12 2a2 2 0 012 2v12l-4-2-4 2V4a2 2 0 012-2h4z" fill="#dbeafe"/>
                </g>
            </g>
            <text x="80" y="200" font-family="system-ui" font-size="20" fill="#dbeafe">
                Powered by Google's Gemma 2B-IT model
            </text>
        </g>
    </g>
</svg> 